<svg xmlns="http://www.w3.org/2000/svg" width="48.105" height="42.092" viewBox="0 0 48.105 42.092">
    <path data-name="Icon awesome-comment-dots" d="M24.053 2.25C10.767 2.25 0 11 0 21.793a17.346 17.346 0 0 0 5.355 12.28c-1.174 4.735-5.1 8.954-5.149 9a.747.747 0 0 0-.141.817.736.736 0 0 0 .686.451 21.487 21.487 0 0 0 13.21-4.829 28.654 28.654 0 0 0 10.091 1.823c13.285 0 24.053-8.747 24.053-19.543S37.338 2.25 24.053 2.25zM12.026 24.8a3.007 3.007 0 1 1 3.007-3.007 3 3 0 0 1-3.007 3.007zm12.026 0a3.007 3.007 0 1 1 3.007-3.007 3 3 0 0 1-3.006 3.007zm12.026 0a3.007 3.007 0 1 1 3.007-3.007 3 3 0 0 1-3.006 3.007z" transform="translate(0 -2.25)" style="fill:#e2e2e2"/>
</svg>
