<svg xmlns="http://www.w3.org/2000/svg" height="20" viewBox="0 -960 960 960" width="20"><path d="M562.154-136v-78.385l202.308-201.307q4.181-3.566 8.351-5.322 4.17-1.755 8.229-1.755 4.427 0 8.819 1.577 4.392 1.577 7.985 4.73l44 45.77q3.512 4.181 5.295 8.436 1.782 4.256 1.782 8.4t-1.755 8.301q-1.756 4.158-5.322 8.248L640.539-136h-78.385Zm263.385-217.615-45-45.77 45 45.77Zm-240 194.23h45l132.692-131.922-22-23.791-22-22.748-133.692 133.461v45ZM288.615-136Q264-136 248-152.15q-16-16.15-16-40.465v-574.77q0-24.315 16.15-40.465Q264.3-824 288.615-824H596l132 132v135.846h-32V-664H568v-128H288.615q-9.23 0-16.923 7.692Q264-776.615 264-767.385v574.77q0 9.23 7.692 16.923Q279.385-168 288.615-168h186.154v32H288.615ZM496-480Zm245.231 164.902-22-22.748 44 46.539-22-23.791Z"/></svg>